# xmcd
#
# Track frame offsets:
#	150
#	18899
#	34317
#	48144
#	60165
#	73921
#	85989
#	96888
#	110089
#	121785
#	130876
#	143501
#	155165
#	165665
#	180020
#	192450
#	205368
#	219766
#
# Disc length: 3132 seconds
#
# Revision: 0
# Processed by: cddbd v1.5.1PL0 Copyright (c) Steve Scherf et al.
# Submitted via: dBpowerAMP V4.0
#
DISCID=f20c3a12
DTITLE=Dean Brothers - The Family Album vol 1
DYEAR=1900
DGENRE=
TTITLE0=I Knew The Bride
TTITLE1=Devil Woman
TTITLE2=I'll Give You Something To Drink About
TTITLE3=Leave My Mamma Out Of This
TTITLE4=Little Sister
TTITLE5=Life Turned Her That Way
TTITLE6=Waltz Across Texas
TTITLE7=Billy Be Bad
TTITLE8=All Shook Up
TTITLE9=He'll Have To Go
TTITLE10=I Can't Get Over You
TTITLE11=Sorry Dear
TTITLE12=Here Today Gone Tomorrow
TTITLE13=There Goes My Heart
TTITLE14=Feeling Kinda Lonely Tonight
TTITLE15=Reggae Cowboy
TTITLE16=Anyway The Wind Blows
TTITLE17=Boogie Till THe cows Come Home
EXTD=
EXTT0=
EXTT1=
EXTT2=
EXTT3=
EXTT4=
EXTT5=
EXTT6=
EXTT7=
EXTT8=
EXTT9=
EXTT10=
EXTT11=
EXTT12=
EXTT13=
EXTT14=
EXTT15=
EXTT16=
EXTT17=
PLAYORDER=
